<svg xmlns="http://www.w3.org/2000/svg" xmlns:xlink="http://www.w3.org/1999/xlink" version="1.1" width="24" height="24" viewBox="0 0 1000 1000" xml:space="preserve">
<desc>Created with Fabric.js 3.5.0</desc>
<defs>
</defs>
<rect x="0" y="0" width="100%" height="100%" fill="#fff"/>
<g transform="matrix(1 0 0 1 -1136.9231 850.7692)" id="397726">
<g style="" vector-effect="non-scaling-stroke">
		<g transform="matrix(1 0 0 1 -76.6303 -34.0011)">
<path style="stroke: none; stroke-width: 1; stroke-dasharray: none; stroke-linecap: butt; stroke-dashoffset: 0; stroke-linejoin: miter; stroke-miterlimit: 4; is-custom-font: none; font-file-url: none; fill: rgb(255,194,74); fill-rule: nonzero; opacity: 1;" transform=" translate(-51.3697, -141.4988)" d="M 0 282.99762 L 2.12250746 280.0256 L 102.527363 89.5119284 L 102.739423 87.4951323 L 58.478806 4.35817711 C 54.7706269 -2.60604179 44.3313035 -0.845245771 43.1143483 6.95065473 L 0 282.99762 Z" stroke-linecap="round"/>
</g>
		<g transform="matrix(1 0 0 1 -76.2681 -34.4835)">
<path style="stroke: none; stroke-width: 1; stroke-dasharray: none; stroke-linecap: butt; stroke-dashoffset: 0; stroke-linejoin: miter; stroke-miterlimit: 4; is-custom-font: none; font-file-url: none; fill: rgb(255,167,18); fill-rule: evenodd; opacity: 1;" transform=" translate(-51.732, -141.0165)" d="M 1.25273437 280.731641 L 2.85834533 277.600858 L 102.211177 89.0833546 L 58.0613266 5.6082033 C 54.3920011 -1.28304578 45.0741245 0.473674398 43.8699203 8.18789086 L 1.25273437 280.731641 Z" stroke-linecap="round"/>
</g>
		<g transform="matrix(1 0 0 1 -76.2681 -34.4835)">
<path style="stroke: none; stroke-width: 1; stroke-dasharray: none; stroke-linecap: butt; stroke-dashoffset: 0; stroke-linejoin: miter; stroke-miterlimit: 4; is-custom-font: none; font-file-url: none; fill: rgb(0,0,0); fill-rule: nonzero; opacity: 1;" transform=" translate(-51.732, -141.0165)" d="M 1.25273437 280.731641 L 2.85834533 277.600858 L 102.211177 89.0833546 L 58.0613266 5.6082033 C 54.3920011 -1.28304578 45.0741245 0.473674398 43.8699203 8.18789086 L 1.25273437 280.731641 Z" stroke-linecap="round"/>
</g>
		<g transform="matrix(1 0 0 1 7.1906 -75.697)">
<path style="stroke: none; stroke-width: 1; stroke-dasharray: none; stroke-linecap: butt; stroke-dashoffset: 0; stroke-linejoin: miter; stroke-miterlimit: 4; is-custom-font: none; font-file-url: none; fill: rgb(244,189,98); fill-rule: nonzero; opacity: 1;" transform=" translate(-135.1906, -99.803)" d="M 135.004975 150.380704 L 167.960199 116.629461 L 134.995423 53.6993114 C 131.866109 47.7425353 123.128817 47.7253411 120.032618 53.6993112 L 102.421015 87.2880848 L 102.421015 90.1487443 L 135.004975 150.380704 Z" stroke-linecap="round"/>
</g>
		<g transform="matrix(1 0 0 1 6.5975 -75.7636)">
<path style="stroke: none; stroke-width: 1; stroke-dasharray: none; stroke-linecap: butt; stroke-dashoffset: 0; stroke-linejoin: miter; stroke-miterlimit: 4; is-custom-font: none; font-file-url: none; fill: rgb(255,165,14); fill-rule: evenodd; opacity: 1;" transform=" translate(-134.5976, -99.7364)" d="M 134.417103 148.974235 L 166.455722 116.161738 L 134.417104 55.1546874 C 131.374828 49.3635911 123.983911 48.7568362 120.973828 54.5646483 L 103.26875 88.6738296 L 102.739423 90.4175473 L 134.417103 148.974235 Z" stroke-linecap="round"/>
</g>
		<g transform="matrix(1 0 0 1 6.5975 -75.7636)">
<path style="stroke: none; stroke-width: 1; stroke-dasharray: none; stroke-linecap: butt; stroke-dashoffset: 0; stroke-linejoin: miter; stroke-miterlimit: 4; is-custom-font: none; font-file-url: none; fill: rgb(0,0,0); fill-rule: nonzero; opacity: 1;" transform=" translate(-134.5976, -99.7364)" d="M 134.417103 148.974235 L 166.455722 116.161738 L 134.417104 55.1546874 C 131.374828 49.3635911 123.983911 48.7568362 120.973828 54.5646483 L 103.26875 88.6738296 L 102.739423 90.4175473 L 134.417103 148.974235 Z" stroke-linecap="round"/>
</g>
		<g transform="matrix(1 0 0 1 -60.7185 9.5513)">
<polygon style="stroke: none; stroke-width: 1; stroke-dasharray: none; stroke-linecap: butt; stroke-dashoffset: 0; stroke-linejoin: miter; stroke-miterlimit: 4; is-custom-font: none; font-file-url: none; fill: rgb(246,130,12); fill-rule: nonzero; opacity: 1;" points="-67.2815,97.9464 -66.3194,96.9792 -62.8238,95.5583 65.6538,-32.4417 67.2815,-36.8726 35.2316,-97.9464 "/>
</g>
		<g transform="matrix(1 0 0 1 -0.3019 35.5676)">
<path style="stroke: none; stroke-width: 1; stroke-dasharray: none; stroke-linecap: butt; stroke-dashoffset: 0; stroke-linejoin: miter; stroke-miterlimit: 4; is-custom-font: none; font-file-url: none; fill: rgb(253,224,104); fill-rule: nonzero; opacity: 1;" transform=" translate(-127.6981, -211.0676)" d="M 139.120971 347.551268 L 255.395916 282.703666 L 222.191698 78.2093373 C 221.153051 71.8112478 213.303658 69.2818149 208.724314 73.8694368 L 0.000254726368 282.997875 L 115.608454 347.545536 C 122.914643 351.624979 131.812872 351.62689 139.120971 347.551268" stroke-linecap="round"/>
</g>
		<g transform="matrix(1 0 0 1 -0.1782 35.5254)">
<path style="stroke: none; stroke-width: 1; stroke-dasharray: none; stroke-linecap: butt; stroke-dashoffset: 0; stroke-linejoin: miter; stroke-miterlimit: 4; is-custom-font: none; font-file-url: none; fill: rgb(252,202,63); fill-rule: nonzero; opacity: 1;" transform=" translate(-127.8218, -211.0254)" d="M 254.354084 282.159837 L 221.401937 79.2179369 C 220.371175 72.8684188 213.843792 70.2409553 209.299213 74.79375 L 1.28945312 282.600785 L 115.627825 346.509458 C 122.878548 350.557931 131.709226 350.559827 138.961846 346.515146 L 254.354084 282.159837 Z" stroke-linecap="round"/>
</g>
		<g transform="matrix(1 0 0 1 -0.302 140.2792)">
<path style="stroke: none; stroke-width: 1; stroke-dasharray: none; stroke-linecap: butt; stroke-dashoffset: 0; stroke-linejoin: miter; stroke-miterlimit: 4; is-custom-font: none; font-file-url: none; fill: rgb(238,171,55); fill-rule: nonzero; opacity: 1;" transform=" translate(-127.698, -315.7792)" d="M 139.120907 345.64082 C 131.812808 349.716442 122.914579 349.714531 115.60839 345.635089 L 0.93134768 282.014551 L 0.000191044776 282.997875 L 115.60839 347.545536 C 122.914579 351.624979 131.812808 351.62689 139.120907 347.551268 L 255.395853 282.703666 L 255.111196 280.951785 L 139.120907 345.64082 Z" stroke-linecap="round"/>
</g>
</g>
</g>
<g transform="matrix(1 0 0 1 500 500)" id="142027">
<g style="" vector-effect="non-scaling-stroke">
		<g transform="matrix(1 0 0 1 6.5325 -0.4445)">
<path style="stroke: none; stroke-width: 1; stroke-dasharray: none; stroke-linecap: butt; stroke-dashoffset: 0; stroke-linejoin: miter; stroke-miterlimit: 4; is-custom-font: none; font-file-url: none; fill: rgb(255,160,0); fill-rule: nonzero; opacity: 1;" transform=" translate(-16.5325, -9.5555)" d="M 19.62 11.558 l -3.203 2.98 l -2.972 -5.995 l 1.538 -3.448 c 0.4 -0.7 1.024 -0.692 1.414 0 z" stroke-linecap="round"/>
</g>
		<g transform="matrix(1 0 0 1 0.432 7.108)">
<path style="stroke: none; stroke-width: 1; stroke-dasharray: none; stroke-linecap: butt; stroke-dashoffset: 0; stroke-linejoin: miter; stroke-miterlimit: 4; is-custom-font: none; font-file-url: none; fill: rgb(245,127,23); fill-rule: nonzero; opacity: 1;" transform=" translate(-10.432, -17.108)" d="M 13.445 8.543 l 2.972 5.995 l -11.97 11.135 z" stroke-linecap="round"/>
</g>
		<g transform="matrix(1 0 0 1 6.0005 9.3492)">
<path style="stroke: none; stroke-width: 1; stroke-dasharray: none; stroke-linecap: butt; stroke-dashoffset: 0; stroke-linejoin: miter; stroke-miterlimit: 4; is-custom-font: none; font-file-url: none; fill: rgb(255,202,40); fill-rule: nonzero; opacity: 1;" transform=" translate(-16.0005, -19.3493)" d="M 23.123 7.003 c 0.572 -0.55 1.164 -0.362 1.315 0.417 l 3.116 18.105 l -10.328 6.2 c -0.36 0.2 -1.32 0.286 -1.32 0.286 s -0.874 -0.104 -1.207 -0.3 L 4.447 25.673 z" stroke-linecap="round"/>
</g>
		<g transform="matrix(1 0 0 1 -1.0535 2.8367)">
<path style="stroke: none; stroke-width: 1; stroke-dasharray: none; stroke-linecap: butt; stroke-dashoffset: 0; stroke-linejoin: miter; stroke-miterlimit: 4; is-custom-font: none; font-file-url: none; fill: rgb(255,160,0); fill-rule: nonzero; opacity: 1;" transform=" translate(-8.9465, -12.8366)" d="M 13.445 8.543 l -8.997 17.13 L 8.455 0.638 c 0.148 -0.78 0.592 -0.855 0.988 -0.167 z" stroke-linecap="round"/>
</g>
</g>
</g>
<g transform="matrix(1 0 0 1 500 500)" id="290729">
<path style="stroke: none; stroke-width: 1; stroke-dasharray: none; stroke-linecap: butt; stroke-dashoffset: 0; stroke-linejoin: miter; stroke-miterlimit: 4; is-custom-font: none; font-file-url: none; fill: rgb(0,0,0); fill-rule: nonzero; opacity: 1;" vector-effect="non-scaling-stroke" transform=" translate(-27.5, -27.5)" d="M 52.354 8.51 C 51.196 4.22 42.577 0 27.5 0 C 12.423 0 3.803 4.22 2.646 8.51 C 2.562 8.657 2.5 8.818 2.5 9 v 0.5 V 21 v 0.5 V 22 v 11 v 0.5 V 34 v 12 c 0 0.162 0.043 0.315 0.117 0.451 C 3.798 51.346 14.364 55 27.5 55 c 13.106 0 23.655 -3.639 24.875 -8.516 C 52.455 46.341 52.5 46.176 52.5 46 V 34 v -0.5 V 33 V 22 v -0.5 V 21 V 9.5 V 9 C 52.5 8.818 52.438 8.657 52.354 8.51 z M 50.421 33.985 c -0.028 0.121 -0.067 0.241 -0.116 0.363 c -0.04 0.099 -0.089 0.198 -0.143 0.297 c -0.067 0.123 -0.142 0.246 -0.231 0.369 c -0.066 0.093 -0.141 0.185 -0.219 0.277 c -0.111 0.131 -0.229 0.262 -0.363 0.392 c -0.081 0.079 -0.17 0.157 -0.26 0.236 c -0.164 0.143 -0.335 0.285 -0.526 0.426 c -0.082 0.061 -0.17 0.12 -0.257 0.18 c -0.226 0.156 -0.462 0.311 -0.721 0.463 c -0.068 0.041 -0.141 0.08 -0.212 0.12 c -0.298 0.168 -0.609 0.335 -0.945 0.497 c -0.043 0.021 -0.088 0.041 -0.132 0.061 c -0.375 0.177 -0.767 0.351 -1.186 0.519 c -0.012 0.005 -0.024 0.009 -0.036 0.014 c -2.271 0.907 -5.176 1.67 -8.561 2.17 c -0.017 0.002 -0.034 0.004 -0.051 0.007 c -0.658 0.097 -1.333 0.183 -2.026 0.259 c -0.113 0.012 -0.232 0.02 -0.346 0.032 c -0.605 0.063 -1.217 0.121 -1.847 0.167 c -0.288 0.021 -0.59 0.031 -0.883 0.049 c -0.474 0.028 -0.943 0.059 -1.429 0.076 C 29.137 40.984 28.327 41 27.5 41 s -1.637 -0.016 -2.432 -0.044 c -0.486 -0.017 -0.955 -0.049 -1.429 -0.076 c -0.293 -0.017 -0.595 -0.028 -0.883 -0.049 c -0.63 -0.046 -1.242 -0.104 -1.847 -0.167 c -0.114 -0.012 -0.233 -0.02 -0.346 -0.032 c -0.693 -0.076 -1.368 -0.163 -2.026 -0.259 c -0.017 -0.002 -0.034 -0.004 -0.051 -0.007 c -3.385 -0.5 -6.29 -1.263 -8.561 -2.17 c -0.012 -0.004 -0.024 -0.009 -0.036 -0.014 c -0.419 -0.168 -0.812 -0.342 -1.186 -0.519 c -0.043 -0.021 -0.089 -0.041 -0.132 -0.061 c -0.336 -0.162 -0.647 -0.328 -0.945 -0.497 c -0.07 -0.04 -0.144 -0.079 -0.212 -0.12 c -0.259 -0.152 -0.495 -0.307 -0.721 -0.463 c -0.086 -0.06 -0.175 -0.119 -0.257 -0.18 c -0.191 -0.141 -0.362 -0.283 -0.526 -0.426 c -0.089 -0.078 -0.179 -0.156 -0.26 -0.236 c -0.134 -0.13 -0.252 -0.26 -0.363 -0.392 c -0.078 -0.092 -0.153 -0.184 -0.219 -0.277 c -0.088 -0.123 -0.163 -0.246 -0.231 -0.369 c -0.054 -0.099 -0.102 -0.198 -0.143 -0.297 c -0.049 -0.121 -0.088 -0.242 -0.116 -0.363 C 4.541 33.823 4.5 33.661 4.5 33.5 c 0 -0.113 0.013 -0.226 0.031 -0.338 c 0.025 -0.151 0.011 -0.302 -0.031 -0.445 v -7.424 c 0.028 0.026 0.063 0.051 0.092 0.077 c 0.218 0.192 0.44 0.383 0.69 0.567 C 9.049 28.786 16.582 31 27.5 31 c 10.872 0 18.386 -2.196 22.169 -5.028 c 0.302 -0.22 0.574 -0.447 0.83 -0.678 l 0.001 -0.001 v 7.424 c -0.042 0.143 -0.056 0.294 -0.031 0.445 c 0.019 0.112 0.031 0.225 0.031 0.338 C 50.5 33.661 50.459 33.823 50.421 33.985 z M 50.5 13.293 v 7.424 c -0.042 0.143 -0.056 0.294 -0.031 0.445 c 0.019 0.112 0.031 0.225 0.031 0.338 c 0 0.161 -0.041 0.323 -0.079 0.485 c -0.028 0.121 -0.067 0.241 -0.116 0.363 c -0.04 0.099 -0.089 0.198 -0.143 0.297 c -0.067 0.123 -0.142 0.246 -0.231 0.369 c -0.066 0.093 -0.141 0.185 -0.219 0.277 c -0.111 0.131 -0.229 0.262 -0.363 0.392 c -0.081 0.079 -0.17 0.157 -0.26 0.236 c -0.164 0.143 -0.335 0.285 -0.526 0.426 c -0.082 0.061 -0.17 0.12 -0.257 0.18 c -0.226 0.156 -0.462 0.311 -0.721 0.463 c -0.068 0.041 -0.141 0.08 -0.212 0.12 c -0.298 0.168 -0.609 0.335 -0.945 0.497 c -0.043 0.021 -0.088 0.041 -0.132 0.061 c -0.375 0.177 -0.767 0.351 -1.186 0.519 c -0.012 0.005 -0.024 0.009 -0.036 0.014 c -2.271 0.907 -5.176 1.67 -8.561 2.17 c -0.017 0.002 -0.034 0.004 -0.051 0.007 c -0.658 0.097 -1.333 0.183 -2.026 0.259 c -0.113 0.012 -0.232 0.02 -0.346 0.032 c -0.605 0.063 -1.217 0.121 -1.847 0.167 c -0.288 0.021 -0.59 0.031 -0.883 0.049 c -0.474 0.028 -0.943 0.059 -1.429 0.076 C 29.137 28.984 28.327 29 27.5 29 s -1.637 -0.016 -2.432 -0.044 c -0.486 -0.017 -0.955 -0.049 -1.429 -0.076 c -0.293 -0.017 -0.595 -0.028 -0.883 -0.049 c -0.63 -0.046 -1.242 -0.104 -1.847 -0.167 c -0.114 -0.012 -0.233 -0.02 -0.346 -0.032 c -0.693 -0.076 -1.368 -0.163 -2.026 -0.259 c -0.017 -0.002 -0.034 -0.004 -0.051 -0.007 c -3.385 -0.5 -6.29 -1.263 -8.561 -2.17 c -0.012 -0.004 -0.024 -0.009 -0.036 -0.014 c -0.419 -0.168 -0.812 -0.342 -1.186 -0.519 c -0.043 -0.021 -0.089 -0.041 -0.132 -0.061 c -0.336 -0.162 -0.647 -0.328 -0.945 -0.497 c -0.07 -0.04 -0.144 -0.079 -0.212 -0.12 c -0.259 -0.152 -0.495 -0.307 -0.721 -0.463 c -0.086 -0.06 -0.175 -0.119 -0.257 -0.18 c -0.191 -0.141 -0.362 -0.283 -0.526 -0.426 c -0.089 -0.078 -0.179 -0.156 -0.26 -0.236 c -0.134 -0.13 -0.252 -0.26 -0.363 -0.392 c -0.078 -0.092 -0.153 -0.184 -0.219 -0.277 c -0.088 -0.123 -0.163 -0.246 -0.231 -0.369 c -0.054 -0.099 -0.102 -0.198 -0.143 -0.297 c -0.049 -0.121 -0.088 -0.242 -0.116 -0.363 C 4.541 21.823 4.5 21.661 4.5 21.5 c 0 -0.113 0.013 -0.226 0.031 -0.338 c 0.025 -0.151 0.011 -0.302 -0.031 -0.445 v -7.424 c 0.12 0.109 0.257 0.216 0.387 0.324 c 0.072 0.06 0.139 0.12 0.215 0.18 c 0.3 0.236 0.624 0.469 0.975 0.696 c 0.073 0.047 0.155 0.093 0.231 0.14 c 0.294 0.183 0.605 0.362 0.932 0.538 c 0.121 0.065 0.242 0.129 0.367 0.193 c 0.365 0.186 0.748 0.367 1.151 0.542 c 0.066 0.029 0.126 0.059 0.193 0.087 c 0.469 0.199 0.967 0.389 1.485 0.573 c 0.143 0.051 0.293 0.099 0.44 0.149 c 0.412 0.139 0.838 0.272 1.279 0.401 c 0.159 0.046 0.315 0.094 0.478 0.138 c 0.585 0.162 1.189 0.316 1.823 0.458 c 0.087 0.02 0.181 0.036 0.269 0.055 c 0.559 0.122 1.139 0.235 1.735 0.341 c 0.202 0.036 0.407 0.07 0.613 0.104 c 0.567 0.093 1.151 0.178 1.75 0.256 c 0.154 0.02 0.301 0.043 0.457 0.062 c 0.744 0.09 1.514 0.167 2.305 0.233 c 0.195 0.016 0.398 0.028 0.596 0.042 c 0.633 0.046 1.28 0.084 1.942 0.114 c 0.241 0.011 0.481 0.022 0.727 0.031 C 25.712 18.979 26.59 19 27.5 19 s 1.788 -0.021 2.65 -0.05 c 0.245 -0.009 0.485 -0.02 0.727 -0.031 c 0.662 -0.03 1.309 -0.068 1.942 -0.114 c 0.198 -0.015 0.4 -0.026 0.596 -0.042 c 0.791 -0.065 1.561 -0.143 2.305 -0.233 c 0.156 -0.019 0.303 -0.042 0.457 -0.062 c 0.599 -0.078 1.182 -0.163 1.75 -0.256 c 0.206 -0.034 0.411 -0.068 0.613 -0.104 c 0.596 -0.106 1.176 -0.219 1.735 -0.341 c 0.088 -0.019 0.182 -0.036 0.269 -0.055 c 0.634 -0.142 1.238 -0.297 1.823 -0.458 c 0.163 -0.045 0.319 -0.092 0.478 -0.138 c 0.441 -0.129 0.867 -0.262 1.279 -0.401 c 0.147 -0.05 0.297 -0.098 0.44 -0.149 c 0.518 -0.184 1.017 -0.374 1.485 -0.573 c 0.067 -0.028 0.127 -0.058 0.193 -0.087 c 0.403 -0.176 0.786 -0.356 1.151 -0.542 c 0.125 -0.064 0.247 -0.128 0.367 -0.193 c 0.327 -0.175 0.638 -0.354 0.932 -0.538 c 0.076 -0.047 0.158 -0.093 0.231 -0.14 c 0.351 -0.227 0.675 -0.459 0.975 -0.696 c 0.075 -0.06 0.142 -0.12 0.215 -0.18 C 50.243 13.509 50.38 13.402 50.5 13.293 z M 27.5 2 c 13.555 0 23 3.952 23 7.5 s -9.445 7.5 -23 7.5 s -23 -3.952 -23 -7.5 S 13.945 2 27.5 2 z M 50.5 45.703 c -0.014 0.044 -0.024 0.089 -0.032 0.135 C 49.901 49.297 40.536 53 27.5 53 S 5.099 49.297 4.532 45.838 c -0.008 -0.045 -0.019 -0.089 -0.032 -0.131 v -8.414 c 0.028 0.026 0.063 0.051 0.092 0.077 c 0.218 0.192 0.44 0.383 0.69 0.567 C 9.049 40.786 16.582 43 27.5 43 c 10.872 0 18.386 -2.196 22.169 -5.028 c 0.302 -0.22 0.574 -0.447 0.83 -0.678 l 0.001 -0.001 V 45.703 z" stroke-linecap="round"/>
</g>
<g transform="matrix(1 0 0 1 500 500)" id="993855">
<path style="stroke: none; stroke-width: 1; stroke-dasharray: none; stroke-linecap: butt; stroke-dashoffset: 0; stroke-linejoin: miter; stroke-miterlimit: 4; is-custom-font: none; font-file-url: none; fill: rgb(0,0,0); fill-rule: nonzero; opacity: 1;" vector-effect="non-scaling-stroke" transform=" translate(-27.5, -27.5)" d="M 52.354 8.51 C 51.196 4.22 42.577 0 27.5 0 C 12.423 0 3.803 4.22 2.646 8.51 C 2.562 8.657 2.5 8.818 2.5 9 v 0.5 V 21 v 0.5 V 22 v 11 v 0.5 V 34 v 12 c 0 0.162 0.043 0.315 0.117 0.451 C 3.798 51.346 14.364 55 27.5 55 c 13.106 0 23.655 -3.639 24.875 -8.516 C 52.455 46.341 52.5 46.176 52.5 46 V 34 v -0.5 V 33 V 22 v -0.5 V 21 V 9.5 V 9 C 52.5 8.818 52.438 8.657 52.354 8.51 z M 50.421 33.985 c -0.028 0.121 -0.067 0.241 -0.116 0.363 c -0.04 0.099 -0.089 0.198 -0.143 0.297 c -0.067 0.123 -0.142 0.246 -0.231 0.369 c -0.066 0.093 -0.141 0.185 -0.219 0.277 c -0.111 0.131 -0.229 0.262 -0.363 0.392 c -0.081 0.079 -0.17 0.157 -0.26 0.236 c -0.164 0.143 -0.335 0.285 -0.526 0.426 c -0.082 0.061 -0.17 0.12 -0.257 0.18 c -0.226 0.156 -0.462 0.311 -0.721 0.463 c -0.068 0.041 -0.141 0.08 -0.212 0.12 c -0.298 0.168 -0.609 0.335 -0.945 0.497 c -0.043 0.021 -0.088 0.041 -0.132 0.061 c -0.375 0.177 -0.767 0.351 -1.186 0.519 c -0.012 0.005 -0.024 0.009 -0.036 0.014 c -2.271 0.907 -5.176 1.67 -8.561 2.17 c -0.017 0.002 -0.034 0.004 -0.051 0.007 c -0.658 0.097 -1.333 0.183 -2.026 0.259 c -0.113 0.012 -0.232 0.02 -0.346 0.032 c -0.605 0.063 -1.217 0.121 -1.847 0.167 c -0.288 0.021 -0.59 0.031 -0.883 0.049 c -0.474 0.028 -0.943 0.059 -1.429 0.076 C 29.137 40.984 28.327 41 27.5 41 s -1.637 -0.016 -2.432 -0.044 c -0.486 -0.017 -0.955 -0.049 -1.429 -0.076 c -0.293 -0.017 -0.595 -0.028 -0.883 -0.049 c -0.63 -0.046 -1.242 -0.104 -1.847 -0.167 c -0.114 -0.012 -0.233 -0.02 -0.346 -0.032 c -0.693 -0.076 -1.368 -0.163 -2.026 -0.259 c -0.017 -0.002 -0.034 -0.004 -0.051 -0.007 c -3.385 -0.5 -6.29 -1.263 -8.561 -2.17 c -0.012 -0.004 -0.024 -0.009 -0.036 -0.014 c -0.419 -0.168 -0.812 -0.342 -1.186 -0.519 c -0.043 -0.021 -0.089 -0.041 -0.132 -0.061 c -0.336 -0.162 -0.647 -0.328 -0.945 -0.497 c -0.07 -0.04 -0.144 -0.079 -0.212 -0.12 c -0.259 -0.152 -0.495 -0.307 -0.721 -0.463 c -0.086 -0.06 -0.175 -0.119 -0.257 -0.18 c -0.191 -0.141 -0.362 -0.283 -0.526 -0.426 c -0.089 -0.078 -0.179 -0.156 -0.26 -0.236 c -0.134 -0.13 -0.252 -0.26 -0.363 -0.392 c -0.078 -0.092 -0.153 -0.184 -0.219 -0.277 c -0.088 -0.123 -0.163 -0.246 -0.231 -0.369 c -0.054 -0.099 -0.102 -0.198 -0.143 -0.297 c -0.049 -0.121 -0.088 -0.242 -0.116 -0.363 C 4.541 33.823 4.5 33.661 4.5 33.5 c 0 -0.113 0.013 -0.226 0.031 -0.338 c 0.025 -0.151 0.011 -0.302 -0.031 -0.445 v -7.424 c 0.028 0.026 0.063 0.051 0.092 0.077 c 0.218 0.192 0.44 0.383 0.69 0.567 C 9.049 28.786 16.582 31 27.5 31 c 10.872 0 18.386 -2.196 22.169 -5.028 c 0.302 -0.22 0.574 -0.447 0.83 -0.678 l 0.001 -0.001 v 7.424 c -0.042 0.143 -0.056 0.294 -0.031 0.445 c 0.019 0.112 0.031 0.225 0.031 0.338 C 50.5 33.661 50.459 33.823 50.421 33.985 z M 50.5 13.293 v 7.424 c -0.042 0.143 -0.056 0.294 -0.031 0.445 c 0.019 0.112 0.031 0.225 0.031 0.338 c 0 0.161 -0.041 0.323 -0.079 0.485 c -0.028 0.121 -0.067 0.241 -0.116 0.363 c -0.04 0.099 -0.089 0.198 -0.143 0.297 c -0.067 0.123 -0.142 0.246 -0.231 0.369 c -0.066 0.093 -0.141 0.185 -0.219 0.277 c -0.111 0.131 -0.229 0.262 -0.363 0.392 c -0.081 0.079 -0.17 0.157 -0.26 0.236 c -0.164 0.143 -0.335 0.285 -0.526 0.426 c -0.082 0.061 -0.17 0.12 -0.257 0.18 c -0.226 0.156 -0.462 0.311 -0.721 0.463 c -0.068 0.041 -0.141 0.08 -0.212 0.12 c -0.298 0.168 -0.609 0.335 -0.945 0.497 c -0.043 0.021 -0.088 0.041 -0.132 0.061 c -0.375 0.177 -0.767 0.351 -1.186 0.519 c -0.012 0.005 -0.024 0.009 -0.036 0.014 c -2.271 0.907 -5.176 1.67 -8.561 2.17 c -0.017 0.002 -0.034 0.004 -0.051 0.007 c -0.658 0.097 -1.333 0.183 -2.026 0.259 c -0.113 0.012 -0.232 0.02 -0.346 0.032 c -0.605 0.063 -1.217 0.121 -1.847 0.167 c -0.288 0.021 -0.59 0.031 -0.883 0.049 c -0.474 0.028 -0.943 0.059 -1.429 0.076 C 29.137 28.984 28.327 29 27.5 29 s -1.637 -0.016 -2.432 -0.044 c -0.486 -0.017 -0.955 -0.049 -1.429 -0.076 c -0.293 -0.017 -0.595 -0.028 -0.883 -0.049 c -0.63 -0.046 -1.242 -0.104 -1.847 -0.167 c -0.114 -0.012 -0.233 -0.02 -0.346 -0.032 c -0.693 -0.076 -1.368 -0.163 -2.026 -0.259 c -0.017 -0.002 -0.034 -0.004 -0.051 -0.007 c -3.385 -0.5 -6.29 -1.263 -8.561 -2.17 c -0.012 -0.004 -0.024 -0.009 -0.036 -0.014 c -0.419 -0.168 -0.812 -0.342 -1.186 -0.519 c -0.043 -0.021 -0.089 -0.041 -0.132 -0.061 c -0.336 -0.162 -0.647 -0.328 -0.945 -0.497 c -0.07 -0.04 -0.144 -0.079 -0.212 -0.12 c -0.259 -0.152 -0.495 -0.307 -0.721 -0.463 c -0.086 -0.06 -0.175 -0.119 -0.257 -0.18 c -0.191 -0.141 -0.362 -0.283 -0.526 -0.426 c -0.089 -0.078 -0.179 -0.156 -0.26 -0.236 c -0.134 -0.13 -0.252 -0.26 -0.363 -0.392 c -0.078 -0.092 -0.153 -0.184 -0.219 -0.277 c -0.088 -0.123 -0.163 -0.246 -0.231 -0.369 c -0.054 -0.099 -0.102 -0.198 -0.143 -0.297 c -0.049 -0.121 -0.088 -0.242 -0.116 -0.363 C 4.541 21.823 4.5 21.661 4.5 21.5 c 0 -0.113 0.013 -0.226 0.031 -0.338 c 0.025 -0.151 0.011 -0.302 -0.031 -0.445 v -7.424 c 0.12 0.109 0.257 0.216 0.387 0.324 c 0.072 0.06 0.139 0.12 0.215 0.18 c 0.3 0.236 0.624 0.469 0.975 0.696 c 0.073 0.047 0.155 0.093 0.231 0.14 c 0.294 0.183 0.605 0.362 0.932 0.538 c 0.121 0.065 0.242 0.129 0.367 0.193 c 0.365 0.186 0.748 0.367 1.151 0.542 c 0.066 0.029 0.126 0.059 0.193 0.087 c 0.469 0.199 0.967 0.389 1.485 0.573 c 0.143 0.051 0.293 0.099 0.44 0.149 c 0.412 0.139 0.838 0.272 1.279 0.401 c 0.159 0.046 0.315 0.094 0.478 0.138 c 0.585 0.162 1.189 0.316 1.823 0.458 c 0.087 0.02 0.181 0.036 0.269 0.055 c 0.559 0.122 1.139 0.235 1.735 0.341 c 0.202 0.036 0.407 0.07 0.613 0.104 c 0.567 0.093 1.151 0.178 1.75 0.256 c 0.154 0.02 0.301 0.043 0.457 0.062 c 0.744 0.09 1.514 0.167 2.305 0.233 c 0.195 0.016 0.398 0.028 0.596 0.042 c 0.633 0.046 1.28 0.084 1.942 0.114 c 0.241 0.011 0.481 0.022 0.727 0.031 C 25.712 18.979 26.59 19 27.5 19 s 1.788 -0.021 2.65 -0.05 c 0.245 -0.009 0.485 -0.02 0.727 -0.031 c 0.662 -0.03 1.309 -0.068 1.942 -0.114 c 0.198 -0.015 0.4 -0.026 0.596 -0.042 c 0.791 -0.065 1.561 -0.143 2.305 -0.233 c 0.156 -0.019 0.303 -0.042 0.457 -0.062 c 0.599 -0.078 1.182 -0.163 1.75 -0.256 c 0.206 -0.034 0.411 -0.068 0.613 -0.104 c 0.596 -0.106 1.176 -0.219 1.735 -0.341 c 0.088 -0.019 0.182 -0.036 0.269 -0.055 c 0.634 -0.142 1.238 -0.297 1.823 -0.458 c 0.163 -0.045 0.319 -0.092 0.478 -0.138 c 0.441 -0.129 0.867 -0.262 1.279 -0.401 c 0.147 -0.05 0.297 -0.098 0.44 -0.149 c 0.518 -0.184 1.017 -0.374 1.485 -0.573 c 0.067 -0.028 0.127 -0.058 0.193 -0.087 c 0.403 -0.176 0.786 -0.356 1.151 -0.542 c 0.125 -0.064 0.247 -0.128 0.367 -0.193 c 0.327 -0.175 0.638 -0.354 0.932 -0.538 c 0.076 -0.047 0.158 -0.093 0.231 -0.14 c 0.351 -0.227 0.675 -0.459 0.975 -0.696 c 0.075 -0.06 0.142 -0.12 0.215 -0.18 C 50.243 13.509 50.38 13.402 50.5 13.293 z M 27.5 2 c 13.555 0 23 3.952 23 7.5 s -9.445 7.5 -23 7.5 s -23 -3.952 -23 -7.5 S 13.945 2 27.5 2 z M 50.5 45.703 c -0.014 0.044 -0.024 0.089 -0.032 0.135 C 49.901 49.297 40.536 53 27.5 53 S 5.099 49.297 4.532 45.838 c -0.008 -0.045 -0.019 -0.089 -0.032 -0.131 v -8.414 c 0.028 0.026 0.063 0.051 0.092 0.077 c 0.218 0.192 0.44 0.383 0.69 0.567 C 9.049 40.786 16.582 43 27.5 43 c 10.872 0 18.386 -2.196 22.169 -5.028 c 0.302 -0.22 0.574 -0.447 0.83 -0.678 l 0.001 -0.001 V 45.703 z" stroke-linecap="round"/>
</g>
<g transform="matrix(1 0 0 1 500 500)" id="637782">
<path style="stroke: none; stroke-width: 1; stroke-dasharray: none; stroke-linecap: butt; stroke-dashoffset: 0; stroke-linejoin: miter; stroke-miterlimit: 4; is-custom-font: none; font-file-url: none; fill: rgb(0,0,0); fill-rule: nonzero; opacity: 1;" vector-effect="non-scaling-stroke" transform=" translate(-27.5, -27.5)" d="M 52.354 8.51 C 51.196 4.22 42.577 0 27.5 0 C 12.423 0 3.803 4.22 2.646 8.51 C 2.562 8.657 2.5 8.818 2.5 9 v 0.5 V 21 v 0.5 V 22 v 11 v 0.5 V 34 v 12 c 0 0.162 0.043 0.315 0.117 0.451 C 3.798 51.346 14.364 55 27.5 55 c 13.106 0 23.655 -3.639 24.875 -8.516 C 52.455 46.341 52.5 46.176 52.5 46 V 34 v -0.5 V 33 V 22 v -0.5 V 21 V 9.5 V 9 C 52.5 8.818 52.438 8.657 52.354 8.51 z M 50.421 33.985 c -0.028 0.121 -0.067 0.241 -0.116 0.363 c -0.04 0.099 -0.089 0.198 -0.143 0.297 c -0.067 0.123 -0.142 0.246 -0.231 0.369 c -0.066 0.093 -0.141 0.185 -0.219 0.277 c -0.111 0.131 -0.229 0.262 -0.363 0.392 c -0.081 0.079 -0.17 0.157 -0.26 0.236 c -0.164 0.143 -0.335 0.285 -0.526 0.426 c -0.082 0.061 -0.17 0.12 -0.257 0.18 c -0.226 0.156 -0.462 0.311 -0.721 0.463 c -0.068 0.041 -0.141 0.08 -0.212 0.12 c -0.298 0.168 -0.609 0.335 -0.945 0.497 c -0.043 0.021 -0.088 0.041 -0.132 0.061 c -0.375 0.177 -0.767 0.351 -1.186 0.519 c -0.012 0.005 -0.024 0.009 -0.036 0.014 c -2.271 0.907 -5.176 1.67 -8.561 2.17 c -0.017 0.002 -0.034 0.004 -0.051 0.007 c -0.658 0.097 -1.333 0.183 -2.026 0.259 c -0.113 0.012 -0.232 0.02 -0.346 0.032 c -0.605 0.063 -1.217 0.121 -1.847 0.167 c -0.288 0.021 -0.59 0.031 -0.883 0.049 c -0.474 0.028 -0.943 0.059 -1.429 0.076 C 29.137 40.984 28.327 41 27.5 41 s -1.637 -0.016 -2.432 -0.044 c -0.486 -0.017 -0.955 -0.049 -1.429 -0.076 c -0.293 -0.017 -0.595 -0.028 -0.883 -0.049 c -0.63 -0.046 -1.242 -0.104 -1.847 -0.167 c -0.114 -0.012 -0.233 -0.02 -0.346 -0.032 c -0.693 -0.076 -1.368 -0.163 -2.026 -0.259 c -0.017 -0.002 -0.034 -0.004 -0.051 -0.007 c -3.385 -0.5 -6.29 -1.263 -8.561 -2.17 c -0.012 -0.004 -0.024 -0.009 -0.036 -0.014 c -0.419 -0.168 -0.812 -0.342 -1.186 -0.519 c -0.043 -0.021 -0.089 -0.041 -0.132 -0.061 c -0.336 -0.162 -0.647 -0.328 -0.945 -0.497 c -0.07 -0.04 -0.144 -0.079 -0.212 -0.12 c -0.259 -0.152 -0.495 -0.307 -0.721 -0.463 c -0.086 -0.06 -0.175 -0.119 -0.257 -0.18 c -0.191 -0.141 -0.362 -0.283 -0.526 -0.426 c -0.089 -0.078 -0.179 -0.156 -0.26 -0.236 c -0.134 -0.13 -0.252 -0.26 -0.363 -0.392 c -0.078 -0.092 -0.153 -0.184 -0.219 -0.277 c -0.088 -0.123 -0.163 -0.246 -0.231 -0.369 c -0.054 -0.099 -0.102 -0.198 -0.143 -0.297 c -0.049 -0.121 -0.088 -0.242 -0.116 -0.363 C 4.541 33.823 4.5 33.661 4.5 33.5 c 0 -0.113 0.013 -0.226 0.031 -0.338 c 0.025 -0.151 0.011 -0.302 -0.031 -0.445 v -7.424 c 0.028 0.026 0.063 0.051 0.092 0.077 c 0.218 0.192 0.44 0.383 0.69 0.567 C 9.049 28.786 16.582 31 27.5 31 c 10.872 0 18.386 -2.196 22.169 -5.028 c 0.302 -0.22 0.574 -0.447 0.83 -0.678 l 0.001 -0.001 v 7.424 c -0.042 0.143 -0.056 0.294 -0.031 0.445 c 0.019 0.112 0.031 0.225 0.031 0.338 C 50.5 33.661 50.459 33.823 50.421 33.985 z M 50.5 13.293 v 7.424 c -0.042 0.143 -0.056 0.294 -0.031 0.445 c 0.019 0.112 0.031 0.225 0.031 0.338 c 0 0.161 -0.041 0.323 -0.079 0.485 c -0.028 0.121 -0.067 0.241 -0.116 0.363 c -0.04 0.099 -0.089 0.198 -0.143 0.297 c -0.067 0.123 -0.142 0.246 -0.231 0.369 c -0.066 0.093 -0.141 0.185 -0.219 0.277 c -0.111 0.131 -0.229 0.262 -0.363 0.392 c -0.081 0.079 -0.17 0.157 -0.26 0.236 c -0.164 0.143 -0.335 0.285 -0.526 0.426 c -0.082 0.061 -0.17 0.12 -0.257 0.18 c -0.226 0.156 -0.462 0.311 -0.721 0.463 c -0.068 0.041 -0.141 0.08 -0.212 0.12 c -0.298 0.168 -0.609 0.335 -0.945 0.497 c -0.043 0.021 -0.088 0.041 -0.132 0.061 c -0.375 0.177 -0.767 0.351 -1.186 0.519 c -0.012 0.005 -0.024 0.009 -0.036 0.014 c -2.271 0.907 -5.176 1.67 -8.561 2.17 c -0.017 0.002 -0.034 0.004 -0.051 0.007 c -0.658 0.097 -1.333 0.183 -2.026 0.259 c -0.113 0.012 -0.232 0.02 -0.346 0.032 c -0.605 0.063 -1.217 0.121 -1.847 0.167 c -0.288 0.021 -0.59 0.031 -0.883 0.049 c -0.474 0.028 -0.943 0.059 -1.429 0.076 C 29.137 28.984 28.327 29 27.5 29 s -1.637 -0.016 -2.432 -0.044 c -0.486 -0.017 -0.955 -0.049 -1.429 -0.076 c -0.293 -0.017 -0.595 -0.028 -0.883 -0.049 c -0.63 -0.046 -1.242 -0.104 -1.847 -0.167 c -0.114 -0.012 -0.233 -0.02 -0.346 -0.032 c -0.693 -0.076 -1.368 -0.163 -2.026 -0.259 c -0.017 -0.002 -0.034 -0.004 -0.051 -0.007 c -3.385 -0.5 -6.29 -1.263 -8.561 -2.17 c -0.012 -0.004 -0.024 -0.009 -0.036 -0.014 c -0.419 -0.168 -0.812 -0.342 -1.186 -0.519 c -0.043 -0.021 -0.089 -0.041 -0.132 -0.061 c -0.336 -0.162 -0.647 -0.328 -0.945 -0.497 c -0.07 -0.04 -0.144 -0.079 -0.212 -0.12 c -0.259 -0.152 -0.495 -0.307 -0.721 -0.463 c -0.086 -0.06 -0.175 -0.119 -0.257 -0.18 c -0.191 -0.141 -0.362 -0.283 -0.526 -0.426 c -0.089 -0.078 -0.179 -0.156 -0.26 -0.236 c -0.134 -0.13 -0.252 -0.26 -0.363 -0.392 c -0.078 -0.092 -0.153 -0.184 -0.219 -0.277 c -0.088 -0.123 -0.163 -0.246 -0.231 -0.369 c -0.054 -0.099 -0.102 -0.198 -0.143 -0.297 c -0.049 -0.121 -0.088 -0.242 -0.116 -0.363 C 4.541 21.823 4.5 21.661 4.5 21.5 c 0 -0.113 0.013 -0.226 0.031 -0.338 c 0.025 -0.151 0.011 -0.302 -0.031 -0.445 v -7.424 c 0.12 0.109 0.257 0.216 0.387 0.324 c 0.072 0.06 0.139 0.12 0.215 0.18 c 0.3 0.236 0.624 0.469 0.975 0.696 c 0.073 0.047 0.155 0.093 0.231 0.14 c 0.294 0.183 0.605 0.362 0.932 0.538 c 0.121 0.065 0.242 0.129 0.367 0.193 c 0.365 0.186 0.748 0.367 1.151 0.542 c 0.066 0.029 0.126 0.059 0.193 0.087 c 0.469 0.199 0.967 0.389 1.485 0.573 c 0.143 0.051 0.293 0.099 0.44 0.149 c 0.412 0.139 0.838 0.272 1.279 0.401 c 0.159 0.046 0.315 0.094 0.478 0.138 c 0.585 0.162 1.189 0.316 1.823 0.458 c 0.087 0.02 0.181 0.036 0.269 0.055 c 0.559 0.122 1.139 0.235 1.735 0.341 c 0.202 0.036 0.407 0.07 0.613 0.104 c 0.567 0.093 1.151 0.178 1.75 0.256 c 0.154 0.02 0.301 0.043 0.457 0.062 c 0.744 0.09 1.514 0.167 2.305 0.233 c 0.195 0.016 0.398 0.028 0.596 0.042 c 0.633 0.046 1.28 0.084 1.942 0.114 c 0.241 0.011 0.481 0.022 0.727 0.031 C 25.712 18.979 26.59 19 27.5 19 s 1.788 -0.021 2.65 -0.05 c 0.245 -0.009 0.485 -0.02 0.727 -0.031 c 0.662 -0.03 1.309 -0.068 1.942 -0.114 c 0.198 -0.015 0.4 -0.026 0.596 -0.042 c 0.791 -0.065 1.561 -0.143 2.305 -0.233 c 0.156 -0.019 0.303 -0.042 0.457 -0.062 c 0.599 -0.078 1.182 -0.163 1.75 -0.256 c 0.206 -0.034 0.411 -0.068 0.613 -0.104 c 0.596 -0.106 1.176 -0.219 1.735 -0.341 c 0.088 -0.019 0.182 -0.036 0.269 -0.055 c 0.634 -0.142 1.238 -0.297 1.823 -0.458 c 0.163 -0.045 0.319 -0.092 0.478 -0.138 c 0.441 -0.129 0.867 -0.262 1.279 -0.401 c 0.147 -0.05 0.297 -0.098 0.44 -0.149 c 0.518 -0.184 1.017 -0.374 1.485 -0.573 c 0.067 -0.028 0.127 -0.058 0.193 -0.087 c 0.403 -0.176 0.786 -0.356 1.151 -0.542 c 0.125 -0.064 0.247 -0.128 0.367 -0.193 c 0.327 -0.175 0.638 -0.354 0.932 -0.538 c 0.076 -0.047 0.158 -0.093 0.231 -0.14 c 0.351 -0.227 0.675 -0.459 0.975 -0.696 c 0.075 -0.06 0.142 -0.12 0.215 -0.18 C 50.243 13.509 50.38 13.402 50.5 13.293 z M 27.5 2 c 13.555 0 23 3.952 23 7.5 s -9.445 7.5 -23 7.5 s -23 -3.952 -23 -7.5 S 13.945 2 27.5 2 z M 50.5 45.703 c -0.014 0.044 -0.024 0.089 -0.032 0.135 C 49.901 49.297 40.536 53 27.5 53 S 5.099 49.297 4.532 45.838 c -0.008 -0.045 -0.019 -0.089 -0.032 -0.131 v -8.414 c 0.028 0.026 0.063 0.051 0.092 0.077 c 0.218 0.192 0.44 0.383 0.69 0.567 C 9.049 40.786 16.582 43 27.5 43 c 10.872 0 18.386 -2.196 22.169 -5.028 c 0.302 -0.22 0.574 -0.447 0.83 -0.678 l 0.001 -0.001 V 45.703 z" stroke-linecap="round"/>
</g>
<g transform="matrix(1 0 0 1 500 500)" id="480382">
<g style="" vector-effect="non-scaling-stroke">
		<g transform="matrix(3.9063 0 0 3.9063 -0.0623 0.0002)">
<path style="stroke: none; stroke-width: 1; stroke-dasharray: none; stroke-linecap: butt; stroke-dashoffset: 0; stroke-linejoin: miter; stroke-miterlimit: 4; is-custom-font: none; font-file-url: none; fill: rgb(103,98,166); fill-rule: nonzero; opacity: 1;" transform=" translate(-2.544, -2.56)" d="M 4.12 5.12 H 0.968 a 0.49 0.49 0 0 1 -0.488 -0.488 V 0.488 A 0.49 0.49 0 0 1 0.968 0 H 4.12 a 0.49 0.49 0 0 1 0.488 0.488 v 4.144 a 0.49 0.49 0 0 1 -0.488 0.488 z" stroke-linecap="round"/>
</g>
		<g transform="matrix(3.9063 0 0 3.9063 0.3165 -0.0155)">
<path style="stroke: none; stroke-width: 1; stroke-dasharray: none; stroke-linecap: butt; stroke-dashoffset: 0; stroke-linejoin: miter; stroke-miterlimit: 4; is-custom-font: none; font-file-url: none; fill: rgb(255,255,255); fill-rule: nonzero; opacity: 1;" transform=" translate(-2.641, -2.556)" d="M 3.068 4.415 V 2.382 s 0.132 -0.487 -1.63 0.2 C 1.436 2.6 1.436 0.7 1.436 0.7 L 2.01 0.697 v 1.2 s 1.61 -0.635 1.61 0.48 v 2.026 h -0.555 z m 0.328 -2.986 h -0.6 c 0.22 -0.27 0.42 -0.73 0.42 -0.73 h 0.63 s -0.108 0.3 -0.44 0.73 z m -1.95 2.982 V 3.254 l 0.58 0.58 l -0.58 0.58 z" stroke-linecap="round"/>
</g>
</g>
</g>
</svg>