<!-- x="0px" y="0px" -->
<!-- enable-background="new 0 0 512 512" xml:space="preserve" -->
<!-- fill="#6762a6" -->
<!-- fill="#e8d600" -->
<!-- fill="#e4d600" -->
<svg version="1.1" xmlns="http://www.w3.org/2000/svg"     
	 width="24" height="24"	 
	 x="0px" y="0px"
	 viewBox="0 0 512 512"
	 enable-background="new 0 0 512 512"
	 xml:space="preserve">
  
	<path className="dbPath1" d="M23.3,375.2c0,46.8,77.5,82.1,180.3,82.1c9.8,0,19.6-0.3,29.1-1c6.7-0.5,11.8-6.3,11.4-13.1c-0.5-6.7-6.3-11.8-13.1-11.4
		c-9,0.6-18.2,1-27.4,1c-91.8,0-155.8-30.4-155.8-57.6v-51c30.7,24.1,87.7,39.6,155.8,39.6c6.2,0,12.4-0.1,18.6-0.4
		c6.8-0.3,12-6,11.7-12.8c-0.3-6.8-6-12-12.8-11.7c-5.8,0.3-11.7,0.4-17.5,0.4c-91.8,0-155.8-30.4-155.8-57.6v-50.9
		c30.7,24.1,87.7,39.6,155.8,39.6c102.8,0,180.3-35.3,180.3-82.1V94.7c0-46.8-77.5-82.1-180.3-82.1c-102.8,0-180.3,35.3-180.3,82.1
		V375.2z M203.6,245.8c-91.8,0-155.8-30.4-155.8-57.6v-51c30.7,24.1,87.7,39.6,155.8,39.6c68.1,0,125.1-15.5,155.8-39.6v51
		C359.5,215.5,295.5,245.8,203.6,245.8z M203.6,37c91.8,0,155.8,30.4,155.8,57.6s-64,57.6-155.8,57.6S47.8,121.9,47.8,94.7
		S111.8,37,203.6,37z" />	
		
	<g transform="scale(15) translate(14,12)"> 	
	    <svg xmlns="http://www.w3.org/2000/svg" width="20" height="20" viewBox="0 0 5.12 5.12" preserveAspectRatio="xMinYMin meet">
            <path className="hpath1"
               d="M4.12 5.12H.968a.49.49 0 0 1-.488-.488V.488A.49.49 0 0 1 .968 0H4.12a.49.49 0 0 1 .488.488v4.144a.49.49 0 0 1-.488.488z"
               fill="red"/>
            <path className="hpath2"
               d="M3.068 4.415V2.382s.132-.487-1.63.2C1.436 2.6 1.436.7 1.436.7L2.01.697v1.2s1.61-.635 1.61.48v2.026h-.555zm.328-2.986h-.6c.22-.27.42-.73.42-.73h.63s-.108.3-.44.73zm-1.95 2.982V3.254l.58.58-.58.58z"
               fill="blue"/>
        </svg>
    </g>  
</svg>
